<?xml version="1.0" encoding="utf-8"?>
<!-- Generator: Adobe Illustrator 27.5.0, SVG Export Plug-In . SVG Version: 6.00 Build 0)  -->
<svg version="1.1" xmlns="http://www.w3.org/2000/svg" xmlns:xlink="http://www.w3.org/1999/xlink" x="0px" y="0px"
	 viewBox="0 0 500 500" style="enable-background:new 0 0 500 500;" xml:space="preserve">
<g id="BACKGROUND">
	<rect style="fill:#FFFFFF;" width="500" height="500"/>
</g>
<g id="OBJECTS">
	<path style="fill:#EBD7E7;" d="M468.446,438.555c0,6.045-93.745,10.946-209.384,10.946s-209.384-4.9-209.384-10.946
		s93.744-10.946,209.384-10.946S468.446,432.51,468.446,438.555z"/>
	<g>
		<path style="fill:#EBD7E7;" d="M225.781,146.567c-15.623-56.674-86.025-74.931-126.371-32.575
			c-0.579,0.608-1.158,1.227-1.737,1.855c-57.843,62.878-30.518,217.828,90.199,257.101
			c120.717,39.273,246.279-32.443,253.333-96.553c7.054-64.109-48.639-84.254-135.068-66.327
			C257.307,220.196,235.507,181.848,225.781,146.567z"/>
		<path style="fill:#EBD7E7;" d="M335.822,155.264c-16.151,2.63-20.628,16.939-8.157,27.091c4.122,3.355,10.009,6.143,18.394,7.534
			c31.946,5.3,48.897-8.834,36.092-27.159C374.249,151.419,351.829,152.658,335.822,155.264z"/>
		<path style="fill:#EBD7E7;" d="M62.258,328.134c-13.173-9.708-26.533-2.902-25.07,13.112c0.484,5.293,2.607,11.45,7.476,18.418
			c18.549,26.543,40.506,28.779,44.653,6.811C91.877,352.916,75.314,337.755,62.258,328.134z"/>
		<path style="fill:#EBD7E7;" d="M436.452,314.152c-3.161,7.273,1.903,14.067,9.672,12.738c2.568-0.439,5.358-1.772,8.205-4.578
			c10.845-10.69,9.187-22.325-2.246-23.741C445.026,297.697,439.584,306.944,436.452,314.152z"/>
		<path style="fill:#EBD7E7;" d="M223.085,118.3c6.146,5.011,14.057,1.974,14.88-5.864c0.272-2.591-0.256-5.638-2.187-9.137
			c-7.357-13.333-19.006-14.885-23.463-4.262C209.564,105.593,216.994,113.335,223.085,118.3z"/>
		<path style="fill:#EBD7E7;" d="M132.612,389.773c-7.651,2.084-9.784,10.285-3.887,15.514c1.949,1.728,4.734,3.072,8.704,3.537
			c15.124,1.773,23.164-6.798,17.117-16.603C150.813,386.169,140.194,387.708,132.612,389.773z"/>
	</g>
	<g>
		<g>
			<g>
				<g>
					<path style="fill:#EBD7E7;" d="M343.511,68.701c0.122,0.013,0.248-0.004,0.368-0.055c1.278-0.539,2.027-0.791,2.035-0.793
						c0.392-0.131,0.603-0.554,0.473-0.946c-0.131-0.392-0.554-0.603-0.946-0.473c-0.032,0.011-0.805,0.27-2.143,0.834
						c-0.38,0.161-0.559,0.599-0.398,0.98C343.009,68.508,343.248,68.674,343.511,68.701z"/>
				</g>
				<g>
					<path style="fill:#EBD7E7;" d="M305.401,108.81c-0.509,1.357-0.985,2.756-1.416,4.159c-0.107,0.348-0.444,0.561-0.793,0.524
						c-0.047-0.005-0.095-0.015-0.142-0.029c-0.395-0.121-0.617-0.54-0.495-0.935c0.44-1.432,0.926-2.859,1.445-4.244
						c0.145-0.386,0.574-0.582,0.962-0.438C305.35,107.992,305.546,108.423,305.401,108.81z"/>
					<path style="fill:#EBD7E7;" d="M302.82,117.205c-0.343,1.405-0.652,2.851-0.921,4.299c-0.072,0.386-0.429,0.648-0.813,0.607
						c-0.019-0.002-0.039-0.005-0.059-0.008c-0.406-0.076-0.674-0.466-0.599-0.872c0.273-1.475,0.589-2.949,0.938-4.381
						c0.098-0.401,0.503-0.647,0.904-0.549C302.672,116.4,302.918,116.804,302.82,117.205z"/>
					<path style="fill:#EBD7E7;" d="M299.666,139.787c-0.371-0.039-0.662-0.35-0.668-0.732c-0.023-1.5-0.012-3.006,0.032-4.475
						c0.012-0.413,0.357-0.737,0.77-0.725c0.418,0.015,0.737,0.357,0.725,0.77c-0.044,1.446-0.054,2.929-0.032,4.407
						c0.006,0.413-0.323,0.753-0.736,0.759C299.727,139.792,299.696,139.79,299.666,139.787z"/>
					<path style="fill:#EBD7E7;" d="M300.572,125.01c0.41,0.053,0.699,0.428,0.645,0.838c-0.088,0.676-0.168,1.359-0.239,2.03
						c-0.082,0.774-0.154,1.565-0.216,2.349c-0.032,0.412-0.392,0.719-0.804,0.687c-0.007-0.001-0.013-0.001-0.02-0.002
						c-0.402-0.042-0.698-0.397-0.667-0.802c0.063-0.797,0.136-1.601,0.219-2.389c0.072-0.683,0.154-1.378,0.243-2.066
						c0.052-0.403,0.417-0.69,0.82-0.647C300.56,125.009,300.566,125.009,300.572,125.01z"/>
					<path style="fill:#EBD7E7;" d="M307.07,104.747c-0.135,0.303-0.448,0.471-0.761,0.438c-0.076-0.008-0.153-0.028-0.227-0.061
						c-0.377-0.169-0.546-0.611-0.377-0.988c0.609-1.362,1.269-2.72,1.961-4.035c0.192-0.366,0.644-0.506,1.01-0.314
						c0.365,0.192,0.506,0.644,0.314,1.01C308.311,102.085,307.666,103.414,307.07,104.747z"/>
					<path style="fill:#EBD7E7;" d="M339.907,70.505c-1.284,0.656-2.58,1.371-3.852,2.124c-0.144,0.085-0.304,0.117-0.459,0.1
						c-0.227-0.024-0.44-0.151-0.566-0.363c-0.21-0.355-0.093-0.814,0.262-1.024c1.298-0.769,2.622-1.498,3.933-2.168
						c0.367-0.187,0.818-0.042,1.006,0.326C340.421,69.866,340.275,70.317,339.907,70.505z"/>
					<path style="fill:#EBD7E7;" d="M328.764,77.546c-0.158,0.121-0.349,0.169-0.532,0.149c-0.197-0.021-0.386-0.12-0.516-0.29
						c-0.251-0.328-0.188-0.797,0.14-1.048c1.184-0.904,2.41-1.784,3.645-2.617c0.343-0.231,0.807-0.141,1.038,0.202
						c0.231,0.342,0.141,0.807-0.202,1.038C331.127,75.796,329.924,76.66,328.764,77.546z"/>
					<path style="fill:#EBD7E7;" d="M316.199,89.789c-0.165,0.207-0.418,0.302-0.663,0.276c-0.137-0.014-0.272-0.067-0.388-0.16
						c-0.322-0.258-0.375-0.729-0.116-1.051c0.929-1.16,1.909-2.309,2.913-3.413c0.277-0.306,0.75-0.329,1.057-0.051
						c0.306,0.278,0.328,0.751,0.05,1.056C318.068,87.528,317.109,88.653,316.199,89.789z"/>
					<path style="fill:#EBD7E7;" d="M322.106,83.287c-0.166,0.161-0.387,0.23-0.6,0.208c-0.168-0.018-0.33-0.092-0.457-0.222
						c-0.288-0.296-0.281-0.769,0.014-1.057c1.064-1.035,2.177-2.054,3.31-3.031c0.313-0.27,0.785-0.234,1.054,0.078
						c0.27,0.313,0.235,0.785-0.078,1.054C324.238,81.274,323.147,82.273,322.106,83.287z"/>
					<path style="fill:#EBD7E7;" d="M311.155,96.977c-0.156,0.255-0.439,0.384-0.717,0.354c-0.107-0.011-0.213-0.046-0.311-0.105
						c-0.353-0.215-0.464-0.676-0.248-1.028c0.776-1.271,1.603-2.534,2.459-3.754c0.237-0.338,0.703-0.42,1.042-0.183
						c0.338,0.237,0.42,0.704,0.183,1.042C312.725,94.497,311.915,95.733,311.155,96.977z"/>
				</g>
			</g>
			<g>
				<g>
					
						<rect x="344.896" y="50.528" transform="matrix(0.9667 -0.2558 0.2558 0.9667 -3.8945 94.6639)" style="fill:#7C36D7;" width="34.091" height="23.549"/>
					<g>
						<polygon style="fill:#5828AA;" points="358.872,63.542 349.43,77.793 348.476,78.046 348.322,77.466 357.952,62.932 						"/>
					</g>
					<g>
						<polygon style="fill:#5828AA;" points="381.299,68.822 381.433,69.325 380.392,69.6 365.136,61.884 365.635,60.899 						"/>
					</g>
					<polygon style="fill:#8D5CE1;" points="342.45,55.28 362.807,65.576 375.408,46.559 					"/>
				</g>
			</g>
		</g>
		<g>
			<g>
				<g>
					<path style="fill:#7C36D7;" d="M62.549,302.126H40.757c-3.134,0-5.675-2.541-5.675-5.676v-21.792
						c0-3.135,2.541-5.676,5.675-5.676h21.792c3.134,0,5.675,2.541,5.675,5.676v21.792
						C68.224,299.586,65.683,302.126,62.549,302.126z"/>
				</g>
			</g>
			<g>
				<path style="fill:#8D5CE1;" d="M62.938,285.555c0,2.731-0.97,5.234-2.584,7.186c-2.07,2.504-5.199,4.099-8.701,4.099
					c-3.502,0-6.631-1.595-8.701-4.099c-1.614-1.952-2.584-4.456-2.584-7.186c0-6.233,5.052-11.285,11.285-11.285
					C57.885,274.27,62.938,279.322,62.938,285.555z"/>
				<path style="fill:#FFFFFF;" d="M60.354,292.741c-2.07,2.504-5.199,4.099-8.701,4.099c-3.502,0-6.631-1.595-8.701-4.099
					l0.152-0.3c0.244-0.483,0.582-0.906,0.988-1.247c0.406-0.342,0.88-0.603,1.398-0.76c1.838-0.561,3.543-1.128,4.499-2.77
					c-1.164-0.547-1.941-1.642-2.264-2.415c-1.277,0.273-2.195-2.09-1.512-2.716c0.26-0.238,0.523-0.303,0.754-0.29
					c0.211-2.403,2.228-4.551,4.687-4.551c2.458,0,4.476,2.147,4.687,4.551c0.23-0.013,0.494,0.053,0.753,0.29
					c0.683,0.626-0.235,2.989-1.511,2.716c-0.278,0.862-1.236,1.902-2.099,2.266c0.956,1.642,2.496,2.358,4.334,2.919
					c0.518,0.158,0.992,0.418,1.398,0.76c0.406,0.341,0.744,0.764,0.988,1.247L60.354,292.741z"/>
			</g>
		</g>
		<g>
			<g>
				<g>
					<g>
						<g>
							<path style="fill:#FF4059;" d="M281.982,100.887H260.19c-3.134,0-5.676-2.541-5.676-5.675V73.419
								c0-3.134,2.541-5.675,5.676-5.675h21.792c3.134,0,5.676,2.541,5.676,5.675v21.792
								C287.658,98.346,285.117,100.887,281.982,100.887z"/>
						</g>
					</g>
				</g>
			</g>
			<path style="fill:#FFFFFF;" d="M271.583,73.326c-4.232-0.283-7.753,3.07-7.753,7.238c0,1.35,0.37,2.615,1.015,3.7
				c0.96,1.618,1.95,3.217,2.862,4.863l3.438,6.195l5.243-9.458c0.307-0.552,0.64-1.09,0.96-1.635
				c0.663-1.123,1.027-2.44,0.992-3.842C278.253,76.671,275.29,73.571,271.583,73.326z M271.085,82.758
				c-1.69,0-3.063-1.37-3.063-3.063s1.372-3.063,3.063-3.063c1.693,0,3.063,1.37,3.063,3.063S272.778,82.758,271.085,82.758z"/>
		</g>
	</g>
	<g>
		<g>
			<path style="fill:#FF4059;" d="M396.806,230.865c-1.16,13.747-14.174,16.03-11.715,26.484
				c2.459,10.451-2.487,19.802-11.964,19.763c-9.48-0.041-16.453-0.6-18.423,10.715c-1.967,11.315-14.086,19.285-21.028,12.117
				c-1.73-1.783-3.598-3.717-5.427-5.615c-0.499-0.519-0.998-1.035-1.488-1.544c-0.114-0.117-0.229-0.234-0.341-0.352
				c-7.359-7.635-7.952-19.659-1.128-27.776c2.763-3.285,6.41-5.568,11.164-5.18c14.888,1.21,6.899-11.851,14.017-19.558
				c8.197-8.879,18.074-2.81,23.453-10.041C381.412,219.822,397.967,217.118,396.806,230.865z"/>
			<g>
				<path style="fill:#E71C4A;" d="M381.231,239.94l-52.98,54.388c-0.499-0.519-0.998-1.035-1.488-1.544l52.932-54.339
					c0.413-0.424,1.092-0.434,1.516-0.021S381.644,239.516,381.231,239.94z"/>
			</g>
		</g>
		<g>
			<path style="fill:#5828AA;" d="M85.372,151.844c4.213,14.163,18.357,13.721,18.057,25.219
				c-0.301,11.495,6.923,20.224,16.853,18.118c9.932-2.109,17.123-4.215,21.655,7.222c4.529,11.437,18.975,17.154,24.692,8.124
				c1.425-2.247,2.963-4.682,4.467-7.071c0.411-0.653,0.821-1.303,1.224-1.943c0.094-0.148,0.189-0.296,0.281-0.444
				c6.054-9.611,4.054-22.348-4.871-29.373c-3.613-2.843-7.935-4.442-12.837-2.999c-15.349,4.514-9.818-10.924-18.962-17.455
				c-10.532-7.525-19.566,0.992-26.783-5.419C99.109,136.908,81.16,137.681,85.372,151.844z"/>
			<g>
				<path style="fill:#3C118E;" d="M103.684,157.966l67.412,45.489c0.411-0.653,0.821-1.303,1.224-1.943l-67.35-45.449
					c-0.525-0.354-1.239-0.217-1.594,0.309C103.021,156.898,103.158,157.612,103.684,157.966z"/>
			</g>
		</g>
		<path style="fill:#7C36D7;" d="M397.857,116.204c16.007-6.669,29.933-15.932,22.206-21.483
			c-7.734-5.556-31.398,10.839-42.35,30.154l-5.297,5.679c8.227-13.937,10.635-34.071,3.518-37.895
			c-7.073-3.8-7.459,9.749-5.747,22.182c1.302,9.464-0.014,15.959-1.008,19.184l-25.017,26.824
			c12.965-22.107,16.734-53.891,5.472-59.941c-11.222-6.029-11.835,15.468-9.12,35.196c2.052,14.908,0.008,25.179-1.565,30.335
			l-4.988,5.348c0.792,1.01,1.589,2.016,2.393,3.016l29.763-31.913c3.562-0.902,8.709-1.642,15.413-1.192
			c12.522,0.841,26.011-0.488,21.728-7.278c-3.717-5.893-19.041-3.876-31.738,2.677l10.293-11.036
			C385.58,123.191,390.949,119.083,397.857,116.204z"/>
		<path style="fill:#FF4059;" d="M103.005,346.633c-16.617-4.956-31.436-12.711-24.333-19.041c7.11-6.335,32.36,7.492,45.274,25.555
			l5.862,5.094c-9.641-12.999-14.144-32.771-7.465-37.318c6.636-4.519,8.438,8.914,8.038,21.458
			c-0.305,9.549,1.684,15.87,3.011,18.974l27.687,24.058c-15.208-20.628-22.283-51.844-11.716-59.039
			c10.53-7.171,13.389,14.145,12.754,34.048c-0.48,15.041,2.628,25.041,4.732,30.005l5.521,4.797
			c-0.682,1.088-1.369,2.171-2.064,3.25l-32.94-28.622c-3.636-0.524-8.833-0.722-15.453,0.428
			c-12.365,2.147-25.919,2.238-22.37-4.964c3.08-6.25,18.531-5.848,31.843-0.66l-11.391-9.898
			C115.947,352.296,110.177,348.772,103.005,346.633z"/>
		<g>
			<path style="fill:#7C36D7;" d="M107.921,94.593c-1.659,13.695,10.618,18.577,6.085,28.312
				c-4.532,9.733-1.592,19.894,7.695,21.783c9.29,1.887,16.231,2.758,15.859,14.237c-0.374,11.478,9.871,21.746,18.124,16.139
				c2.056-1.394,4.279-2.908,6.456-4.394c0.594-0.406,1.188-0.811,1.771-1.209c0.136-0.092,0.272-0.183,0.405-0.276
				c8.758-5.979,11.783-17.631,6.752-26.966c-2.037-3.779-5.144-6.755-9.878-7.342c-14.823-1.842-4.345-13.006-9.748-21.999
				c-6.221-10.361-17.125-6.426-20.921-14.6C125.239,86.911,109.58,80.898,107.921,94.593z"/>
			<g>
				<g>
					<path style="fill:#5828AA;" d="M121.326,106.646l40.815,64.024c0.594-0.406,1.188-0.811,1.771-1.209l-40.777-63.967
						c-0.318-0.499-0.981-0.646-1.48-0.328C121.155,105.484,121.008,106.147,121.326,106.646z"/>
				</g>
			</g>
		</g>
	</g>
	<g>
		<g>
			<path style="fill:#474574;" d="M337.205,129.706v290.119c0,9.095-7.37,16.465-16.465,16.465H176.266
				c-4.569,0-8.7-1.859-11.685-4.862c-2.954-2.979-4.78-7.077-4.78-11.602V129.706c0-9.095,7.37-16.465,16.465-16.465H320.74
				c2.689,0,5.226,0.643,7.469,1.788C333.55,117.75,337.205,123.3,337.205,129.706z"/>
			<path style="fill:#29245D;" d="M337.205,129.706v290.119c0,9.095-7.37,16.465-16.465,16.465H176.266
				c-4.569,0-8.7-1.859-11.685-4.862l163.627-316.398C333.55,117.75,337.205,123.3,337.205,129.706z"/>
		</g>
		<g>
			<path style="fill:#29245D;" d="M159.802,203.758h-0.807c-2.88,0-5.216-2.335-5.216-5.216v-27.896
				c0-2.881,2.335-5.216,5.216-5.216h0.807V203.758z"/>
			<path style="fill:#29245D;" d="M337.205,193.73h0.66c2.357,0,4.267-1.911,4.267-4.267v-22.675c0-2.357-1.91-4.267-4.267-4.267
				h-0.66V193.73z"/>
			<path style="fill:#29245D;" d="M159.802,247.287h-0.807c-2.88,0-5.216-2.335-5.216-5.216v-27.896c0-2.88,2.335-5.216,5.216-5.216
				h0.807V247.287z"/>
		</g>
		<g>
			<path style="fill:#FFFFFF;" d="M328.992,128.99v291.552c0,4.16-3.375,7.535-7.535,7.535H175.55c-3.103,0-5.765-1.875-6.92-4.553
				c-0.398-0.915-0.615-1.922-0.615-2.982V128.99c0-4.163,3.372-7.535,7.535-7.535h145.907c1.1,0,2.145,0.235,3.085,0.66
				C327.165,123.293,328.992,125.927,328.992,128.99z"/>
		</g>
		<g>
			<g>
				<path style="fill:#EBD7E7;" d="M296.374,226.42c0,11.583-4.113,22.201-10.96,30.481c-8.779,10.62-22.054,17.388-36.91,17.388
					c-14.855,0-28.128-6.765-36.91-17.386c-6.846-8.28-10.96-18.901-10.96-30.484c0-26.439,21.431-47.87,47.869-47.87
					C274.94,178.551,296.374,199.982,296.374,226.42z"/>
				<path style="fill:#FFFFFF;" d="M285.414,256.901c-8.779,10.62-22.054,17.388-36.91,17.388c-14.855,0-28.128-6.765-36.91-17.386
					l0.643-1.271c1.036-2.049,2.47-3.842,4.192-5.291c1.722-1.451,3.733-2.556,5.93-3.224c7.796-2.378,15.028-4.785,19.085-11.748
					c-4.939-2.323-8.232-6.965-9.605-10.243c-5.418,1.158-9.311-8.865-6.413-11.522c1.102-1.008,2.219-1.287,3.197-1.231
					c0.894-10.195,9.452-19.303,19.88-19.303s18.988,9.108,19.882,19.303c0.978-0.056,2.095,0.223,3.194,1.231
					c2.898,2.657-0.995,12.677-6.411,11.522c-1.18,3.658-5.243,8.07-8.906,9.61c4.055,6.963,10.588,10.002,18.384,12.381
					c2.199,0.669,4.21,1.773,5.932,3.224c1.722,1.449,3.156,3.242,4.192,5.291L285.414,256.901z"/>
			</g>
			<path style="fill:#EBD7E7;" d="M300.52,164.728H196.488c-2.839,0-5.162-2.323-5.162-5.162v-1.598
				c0-2.839,2.323-5.162,5.162-5.162H300.52c2.839,0,5.162,2.323,5.162,5.162v1.598C305.682,162.405,303.359,164.728,300.52,164.728
				z"/>
			<g>
				<path style="fill:#EBD7E7;" d="M287.605,300.815h-78.204c-2.839,0-5.162-2.323-5.162-5.162v-1.598
					c0-2.839,2.323-5.162,5.162-5.162h78.204c2.839,0,5.162,2.323,5.162,5.162v1.598
					C292.767,298.492,290.444,300.815,287.605,300.815z"/>
				<path style="fill:#EBD7E7;" d="M287.605,323.242h-78.204c-2.839,0-5.162-2.323-5.162-5.162v-1.598
					c0-2.839,2.323-5.162,5.162-5.162h78.204c2.839,0,5.162,2.323,5.162,5.162v1.598
					C292.767,320.92,290.444,323.242,287.605,323.242z"/>
			</g>
			<g>
				<g>
					<circle style="fill:#7C36D7;" cx="250.893" cy="363.171" r="19.034"/>
				</g>
				<g>
					<path style="fill:#FFFFFF;" d="M261.441,355.878c-0.062-0.257-0.122-0.515-0.186-0.772c-0.226-0.906-0.655-1.704-1.267-2.41
						c-0.437-0.505-0.944-0.936-1.515-1.264c-0.789-0.453-1.682-0.26-2.264,0.442c-1.04,1.254-2.075,2.512-3.101,3.778
						c-0.63,0.777-0.527,1.84,0.254,2.532c0.559,0.495,1.149,0.956,1.727,1.43c0.074,0.061,0.161,0.106,0.225,0.148
						c-1.379,3.707-3.716,6.57-7.073,8.633c-0.406-0.338-0.832-0.694-1.259-1.047c-0.218-0.181-0.435-0.364-0.66-0.537
						c-0.675-0.516-1.455-0.568-2.157-0.11c-0.221,0.144-0.404,0.36-0.576,0.567c-0.939,1.134-1.865,2.279-2.806,3.411
						c-0.298,0.359-0.488,0.756-0.554,1.215c0.017,0.168,0.033,0.337,0.05,0.505c0.164,0.284,0.276,0.62,0.501,0.843
						c0.551,0.548,1.156,1.038,1.876,1.362c0.844,0.38,1.726,0.614,2.651,0.532c0.609-0.054,1.219-0.182,1.81-0.347
						c1.519-0.424,2.902-1.148,4.203-2.026c1.289-0.87,2.464-1.881,3.542-3c1.456-1.51,2.747-3.156,3.919-4.895
						c0.923-1.372,1.721-2.807,2.239-4.385c0.26-0.794,0.435-1.606,0.49-2.441c0.022-0.336,0.03-0.673,0.044-1.01
						C261.517,356.648,261.479,356.263,261.441,355.878z"/>
				</g>
			</g>
			<path style="fill:#EBD7E7;" d="M300.52,410.395H196.488c-2.839,0-5.162-2.323-5.162-5.162v-1.598
				c0-2.839,2.323-5.162,5.162-5.162H300.52c2.839,0,5.162,2.323,5.162,5.162v1.598C305.682,408.072,303.359,410.395,300.52,410.395
				z"/>
		</g>
		<g>
			<path style="fill:#474574;" d="M291.063,135.964h-85.12c-3.977,0-7.231-3.254-7.231-7.231v-2.238
				c0-3.977,3.254-7.231,7.231-7.231h85.12c3.977,0,7.231,3.254,7.231,7.231v2.238C298.294,132.71,295.04,135.964,291.063,135.964z"
				/>
			<path style="fill:#29245D;" d="M272.43,128.572h-56.126c-0.978,0-1.778-0.8-1.778-1.778v-0.55c0-0.978,0.8-1.778,1.778-1.778
				h56.126c0.978,0,1.778,0.8,1.778,1.778v0.55C274.208,127.772,273.408,128.572,272.43,128.572z"/>
			<path style="fill:#474574;" d="M288.747,126.382c0,1.361-1.103,2.464-2.464,2.464s-2.464-1.103-2.464-2.464
				s1.103-2.464,2.464-2.464S288.747,125.022,288.747,126.382z"/>
		</g>
		<path style="opacity:0.3;fill:#FFFFFF;" d="M328.992,128.99v291.552c0,4.16-3.375,7.535-7.535,7.535H175.55
			c-3.103,0-5.765-1.875-6.92-4.553l155.912-301.41C327.165,123.293,328.992,125.927,328.992,128.99z"/>
	</g>
	<g>
		<g>
			<polygon style="fill:#FFAA95;" points="93.552,416.999 93.552,425.352 101.193,425.23 101.691,416.378 			"/>
			<g>
				<g>
					<path style="fill:#FF4059;" d="M94.884,424.577c0,0-1.917-2.515-3.416-2.389c-1.498,0.126-12.963,9.456-16.918,10.261
						c-3.955,0.805-3.152,3.715-2.409,5.198c0.744,1.483,31.613-0.924,31.613-0.924s0.743-9.205-0.298-12.006
						C102.415,421.915,97.992,425.207,94.884,424.577z"/>
					<g>
						<g>
							<path style="fill:#FFFFFF;" d="M88.562,431.068c0.141,0.04,0.297,0.026,0.433-0.054c0.265-0.155,0.354-0.495,0.199-0.759
								c-0.052-0.089-1.286-2.177-2.925-2.979c-2.18-1.07-3.856,0.175-3.927,0.228c-0.244,0.185-0.292,0.534-0.106,0.778
								c0.185,0.244,0.534,0.292,0.778,0.105c0.046-0.034,1.213-0.874,2.766-0.114c1.336,0.654,2.444,2.525,2.455,2.543
								C88.312,430.944,88.43,431.03,88.562,431.068z"/>
						</g>
						<g>
							<path style="fill:#FFFFFF;" d="M90.2,429.486c0.141,0.04,0.297,0.025,0.433-0.055c0.264-0.155,0.354-0.495,0.199-0.76
								c-0.052-0.089-1.286-2.177-2.925-2.98c-2.182-1.071-3.856,0.174-3.927,0.228c-0.244,0.185-0.291,0.534-0.106,0.778
								c0.185,0.244,0.534,0.292,0.778,0.105c0.046-0.033,1.214-0.874,2.766-0.114c1.341,0.657,2.444,2.524,2.455,2.543
								C89.948,429.361,90.067,429.448,90.2,429.486z"/>
						</g>
						<g>
							<path style="fill:#FFFFFF;" d="M86.334,432.363c0.141,0.04,0.297,0.025,0.434-0.054c0.264-0.155,0.354-0.495,0.199-0.76
								c-0.052-0.089-1.286-2.177-2.925-2.98c-2.182-1.071-3.856,0.174-3.927,0.228c-0.244,0.185-0.291,0.534-0.106,0.778
								c0.185,0.244,0.534,0.292,0.778,0.106c0.046-0.033,1.214-0.874,2.766-0.114c1.341,0.657,2.444,2.524,2.455,2.543
								C86.082,432.238,86.201,432.325,86.334,432.363z"/>
						</g>
					</g>
				</g>
			</g>
			<g>
				<path style="fill:#7C36D7;" d="M113.562,293.694c0,0-0.287,5.185-0.734,12.782c-1.084,18.388-3.111,50.905-4.298,58.225
					c-1.22,7.518-0.669,32.187-0.274,45.105c0.068,2.189-0.77,4.188-2.173,5.648c-0.52,0.546-1.123,1.016-1.787,1.392
					c-1.139,0.648-2.453,1.016-3.856,1.016h-5.862c-4.412,0-7.952-3.647-7.816-8.057c0.326-10.922,0.731-30.834-0.037-46.223
					c-0.731-14.64,0.332-40.539,1.155-56.681c0.434-8.516,0.802-14.316,0.802-14.316l20.228,0.899l1.677,0.076L113.562,293.694z"/>
			</g>
			<path style="fill:#5828AA;" d="M110.587,293.561l2.975,0.133c0,0-0.287,5.185-0.734,12.782
				c-7.772,0.648-16.257,0.912-24.948,0.426c0.434-8.516,0.802-14.316,0.802-14.316l20.228,0.899L110.587,293.561z"/>
			<g>
				<path style="fill:#5828AA;" d="M105.986,386.773c0.218,8.258,0.445,16.796,0.296,23.679c-0.042,1.932-0.109,3.584-0.198,5.001
					c-0.52,0.548-1.124,1.018-1.789,1.392c0.143-1.644,0.254-3.746,0.313-6.43c0.145-6.844-0.081-15.359-0.299-23.598
					c-0.268-10.067-0.52-19.578,0.028-23.626c1.196-8.859,3.872-56.885,4.573-69.706l1.677,0.076
					c-0.702,12.812-3.386,60.936-4.59,69.854C105.469,367.329,105.721,376.776,105.986,386.773z"/>
			</g>
		</g>
		<g>
			<polygon style="fill:#FFAA95;" points="130.693,416.794 131.005,425.142 138.636,424.734 138.804,415.87 			"/>
			<g>
				<g>
					<path style="fill:#FF4059;" d="M134.444,422.889c0,0,4.07-0.894,5.182-0.823c1.112,0.072,8.191,8.736,10.678,9.339
						c4.51,1.093,4.2,8.198,1.415,8.427c-8.054,0.664-21.603-3.331-21.603-3.331s-0.856-9.172-0.18-12.009
						C130.613,421.657,132.169,423.63,134.444,422.889z"/>
					<g>
						<g>
							<path style="fill:#FFFFFF;" d="M140.729,430.967c-0.144,0.025-0.298-0.007-0.425-0.1c-0.246-0.182-0.299-0.53-0.117-0.776
								c0.061-0.082,1.511-2.028,3.226-2.65c2.281-0.832,3.816,0.584,3.88,0.645c0.223,0.21,0.233,0.562,0.022,0.785
								c-0.21,0.223-0.562,0.233-0.785,0.022c-0.042-0.038-1.113-0.998-2.738-0.409c-1.398,0.508-2.699,2.25-2.712,2.267
								C140.991,430.869,140.864,430.943,140.729,430.967z"/>
						</g>
						<g>
							<path style="fill:#FFFFFF;" d="M139.269,429.219c-0.144,0.025-0.298-0.007-0.425-0.1c-0.247-0.182-0.299-0.53-0.117-0.777
								c0.061-0.083,1.511-2.028,3.226-2.651c2.284-0.832,3.816,0.585,3.88,0.646c0.223,0.21,0.233,0.562,0.022,0.785
								c-0.21,0.223-0.562,0.233-0.785,0.022c-0.042-0.038-1.114-0.998-2.738-0.408c-1.403,0.51-2.699,2.249-2.712,2.267
								C139.533,429.121,139.405,429.195,139.269,429.219z"/>
						</g>
						<g>
							<path style="fill:#FFFFFF;" d="M142.807,432.491c-0.144,0.025-0.298-0.006-0.425-0.1c-0.247-0.182-0.299-0.53-0.117-0.777
								c0.061-0.082,1.511-2.028,3.226-2.651c2.283-0.832,3.816,0.584,3.88,0.645c0.223,0.21,0.233,0.562,0.022,0.785
								c-0.21,0.223-0.562,0.233-0.785,0.022c-0.042-0.038-1.114-0.998-2.738-0.409c-1.404,0.51-2.699,2.249-2.712,2.267
								C143.07,432.394,142.943,432.468,142.807,432.491z"/>
						</g>
					</g>
				</g>
			</g>
			<g>
				<path style="fill:#7C36D7;" d="M145.59,363.583c-0.773,15.389-0.368,35.301-0.037,46.223c0.131,4.41-3.407,8.057-7.816,8.057
					h-5.862c-1.298,0-2.521-0.316-3.595-0.872c-0.651-0.334-1.249-0.76-1.776-1.264c-1.565-1.476-2.518-3.592-2.45-5.92
					c0.394-12.918,0.948-37.587-0.269-45.105c-1.204-7.406-3.265-40.628-4.337-58.885c-0.428-7.236-0.697-12.121-0.697-12.121
					l3.229-0.144l1.674-0.076l19.979-0.888c0,0,0.22,3.456,0.52,8.95C144.974,316.649,146.41,347.18,145.59,363.583z"/>
			</g>
			<path style="fill:#5828AA;" d="M144.153,301.536c-5.423,1.275-14.167,3.064-24.705,4.279c-0.428-7.236-0.697-12.121-0.697-12.121
				l3.229-0.144l1.674-0.076l19.979-0.888C143.633,292.586,143.853,296.042,144.153,301.536z"/>
			<g>
				<path style="fill:#5828AA;" d="M127.96,410.415c0.059,2.765,0.176,4.912,0.322,6.575c-0.651-0.336-1.249-0.76-1.778-1.264
					c-0.101-1.476-0.176-3.218-0.221-5.275c-0.145-6.883,0.081-15.421,0.299-23.679c0.266-9.997,0.514-19.444-0.014-23.357
					c-1.205-8.921-3.889-57.07-4.588-69.865l1.675-0.076c0.702,12.804,3.377,60.855,4.576,69.717
					c0.548,4.048,0.294,13.559,0.028,23.626C128.041,395.056,127.815,403.572,127.96,410.415z"/>
			</g>
		</g>
		<g>
			<path style="fill:#29245D;" d="M131.963,145.351c0,9.117-5.613,15.399-14.726,15.399c-9.117,0-15.472-6.754-15.472-15.871
				c0-2.514,0.41-4.862,1.199-6.939c0.047-0.124,0.093-0.247,0.143-0.367c0.097-0.236,0.197-0.472,0.306-0.7
				c0.159-0.352,0.337-0.696,0.522-1.029c2.375-4.27,6.63-6.986,12.347-6.986C127.213,128.858,131.963,136.234,131.963,145.351z"/>
			<g>
				<path style="fill:#FF8B6B;" d="M129.917,149.277c0,0,2.533-3.377,4.416-0.585c1.883,2.793-0.779,11.04-5.39,9.027
					L129.917,149.277z"/>
				<path style="fill:#29245D;" d="M132.945,157.571c0,0.541-0.439,0.98-0.98,0.98c-0.541,0-0.98-0.439-0.98-0.98
					c0-0.541,0.439-0.98,0.98-0.98C132.506,156.591,132.945,157.03,132.945,157.571z"/>
				<g>
					<path style="fill:#D85C48;" d="M129.949,155.17c0.17,0,0.327-0.113,0.375-0.285c0.715-2.546,3.353-3.579,3.379-3.589
						c0.201-0.077,0.302-0.301,0.226-0.502c-0.076-0.201-0.301-0.302-0.502-0.227c-0.123,0.047-3.03,1.175-3.854,4.107
						c-0.058,0.207,0.063,0.422,0.27,0.48C129.879,155.165,129.915,155.17,129.949,155.17z"/>
				</g>
				<g>
					<path style="fill:#D85C48;" d="M132.612,153.887c0.072,0,0.145-0.02,0.211-0.062c0.181-0.116,0.233-0.357,0.117-0.539
						c-0.019-0.03-0.486-0.742-1.462-1.179c-0.195-0.088-0.427,0-0.515,0.197c-0.088,0.196,0,0.427,0.197,0.515
						c0.755,0.338,1.122,0.884,1.126,0.89C132.359,153.824,132.484,153.887,132.612,153.887z"/>
				</g>
			</g>
			<g>
				<path style="fill:#FF8B6B;" d="M103.815,149.277c0,0-2.533-3.377-4.416-0.585c-1.883,2.793,0.779,11.04,5.39,9.027
					L103.815,149.277z"/>
				<path style="fill:#29245D;" d="M103.115,157.571c0,0.541-0.439,0.98-0.98,0.98c-0.541,0-0.979-0.439-0.979-0.98
					c0-0.541,0.439-0.98,0.979-0.98C102.677,156.591,103.115,157.03,103.115,157.571z"/>
				<g>
					<path style="fill:#D85C48;" d="M103.782,155.17c-0.17,0-0.327-0.113-0.375-0.285c-0.715-2.546-3.353-3.579-3.379-3.589
						c-0.201-0.077-0.302-0.301-0.225-0.502c0.076-0.201,0.301-0.302,0.502-0.227c0.123,0.047,3.03,1.175,3.854,4.107
						c0.058,0.207-0.063,0.422-0.27,0.48C103.853,155.165,103.817,155.17,103.782,155.17z"/>
				</g>
				<g>
					<g>
						<g>
							<path style="fill:#D85C48;" d="M101.12,153.887c-0.072,0-0.145-0.02-0.21-0.062c-0.181-0.116-0.233-0.357-0.117-0.539
								c0.019-0.03,0.486-0.742,1.462-1.179c0.195-0.088,0.427,0,0.515,0.197c0.088,0.196,0,0.427-0.197,0.515
								c-0.755,0.338-1.122,0.884-1.125,0.89C101.373,153.824,101.248,153.887,101.12,153.887z"/>
						</g>
					</g>
				</g>
			</g>
			<path style="fill:#FFAA95;" d="M110.631,164.714v8.202c0,0,2.446,4.177,5.754,4.462c3.305,0.288,6.241-3.597,6.241-3.597v-8.49
				L110.631,164.714z"/>
			<path style="fill:#FF8B6B;" d="M110.631,164.714v3.64c2.22,2.463,6.162,3.078,11.995,2.217v-5.28L110.631,164.714z"/>
			<path style="fill:#FFAA95;" d="M101.984,143.65c0.152,3.187,0.456,7.174,1.064,10.361c0.152,0.795,0.323,1.543,0.514,2.213
				c1.726,6.044,6.043,16.408,18.13,12.091c5.338-1.905,7.813-7.852,8.915-13.899c0.748-4.107,0.861-8.257,0.807-11.222
				c-0.058-3.027-1.711-5.794-4.345-7.286c-7.135-4.045-14.663-2.536-19.619-0.631C104.01,136.597,101.808,139.975,101.984,143.65z"
				/>
			<path style="fill:#29245D;" d="M122.049,150.347c0,0.876,0.451,1.585,1.008,1.585c0.557,0,1.008-0.71,1.008-1.585
				c0-0.876-0.451-1.585-1.008-1.585C122.5,148.762,122.049,149.471,122.049,150.347z"/>
			<path style="fill:#29245D;" d="M110.169,150.314c0,0.875,0.451,1.585,1.008,1.585c0.557,0,1.008-0.71,1.008-1.585
				c0-0.876-0.451-1.585-1.008-1.585C110.62,148.729,110.169,149.439,110.169,150.314z"/>
			<path style="fill:#29245D;" d="M107.891,144.866c0,0,3.18-1.257,5.629-0.199l-0.245,1.362c0,0-3.594-0.304-5.405,0.43
				C107.709,145.935,107.685,145.405,107.891,144.866z"/>
			<path style="fill:#29245D;" d="M126.42,144.866c0,0-3.18-1.257-5.629-0.199l0.245,1.362c0,0,3.594-0.304,5.404,0.43
				C126.603,145.935,126.626,145.405,126.42,144.866z"/>
			<g>
				<path style="fill:#FF8B6B;" d="M116.731,156.991c-0.657,0-1.309-0.256-1.41-0.297c-0.199-0.081-0.294-0.308-0.213-0.508
					c0.081-0.199,0.309-0.295,0.508-0.214c0.352,0.143,1.197,0.367,1.563,0.148c0.07-0.042,0.167-0.126,0.191-0.363
					c0.141-1.361-0.232-5.922-0.236-5.967c-0.018-0.214,0.142-0.403,0.356-0.42c0.215-0.018,0.403,0.142,0.42,0.356
					c0.016,0.191,0.382,4.68,0.234,6.112c-0.056,0.539-0.339,0.815-0.567,0.951C117.328,156.938,117.029,156.991,116.731,156.991z"
					/>
			</g>
			<path style="fill:#FFFFFF;" d="M121.963,158.97c-0.648,2.248-2.489,4.491-5.025,4.522c-2.534-0.031-4.375-2.274-5.023-4.522
				H121.963z"/>
			<g>
				<path style="fill:#FF8B6B;" d="M117.154,165.934c-1.009,0-1.864-0.511-1.9-0.533c-0.184-0.111-0.243-0.351-0.132-0.535
					c0.112-0.184,0.351-0.243,0.535-0.131c0.006,0.004,0.71,0.42,1.496,0.42c0.721,0,1.411-0.414,1.418-0.418
					c0.183-0.113,0.423-0.057,0.536,0.127c0.113,0.183,0.056,0.423-0.127,0.536C118.947,165.421,118.106,165.934,117.154,165.934z"
					/>
			</g>
			<path style="fill:#29245D;" d="M102.396,149.346h1.766c-0.195-1.773-0.475-4.896,0.981-5.343
				c4.602-1.413-1.361-4.665,0.716-6.286c2.077-1.625,7.247-0.929,10.842-1.045c3.617-0.117,9.431-0.066,10.841,0.261
				c1.414,0.323,0.639,2.672,0.121,4.492c-0.522,1.816,1.734,3.827,2.112,5.709c0.108,0.54,0.086,1.342-0.001,2.212h1.472
				c0.175-2.291,0.201-4.423,0.169-6.152c-0.058-3.027-1.711-5.794-4.345-7.286c-7.135-4.045-14.663-2.537-19.619-0.631
				c-3.441,1.321-5.642,4.699-5.467,8.374C102.067,145.396,102.196,147.382,102.396,149.346z"/>
		</g>
		<g>
			<g>
				<g>
					<g>
						<path style="fill:#FF4059;" d="M150.116,296.464c-8.258,2.073-16.511,3.397-24.767,3.954
							c-4.271,0.289-8.539,0.376-12.808,0.256c-2.582-0.075-5.164-0.223-7.747-0.442c-1.914-0.161-3.829-0.367-5.746-0.615
							c-5.509-0.707-11.021-1.759-16.531-3.153c-0.12-8.578-0.239-43.371,0.454-71.26c0.003-0.264,0.011-0.531,0.019-0.799
							c0.006-0.353,0.014-0.71,0.025-1.063c0.047-1.669,0.095-3.314,0.145-4.922c0.014-0.534,0.031-1.066,0.05-1.586
							c0-0.064,0-0.125,0.003-0.186c0.02-0.512,0.036-1.018,0.056-1.519c0.506-14.297,1.294-25.16,2.51-26.837
							c0.843-1.16,2.546-2.499,4.691-3.901c2.148-1.399,4.739-2.866,7.365-4.288c1.773-0.96,3.562-1.9,5.245-2.785
							c1.088-0.576,2.131-1.13,3.094-1.653c1.906-1.027,3.498-1.937,4.513-2.652c0.392,0.626,2.685,4.107,5.699,4.366
							c3.303,0.289,6.244-3.598,6.244-3.598v-0.737c1.516,1.063,4.143,2.499,7.112,4.104c6.219,3.364,13.951,7.496,16.222,10.61
							c1.338,1.836,2.273,14.861,2.913,31.376c0.017,0.454,0.033,0.907,0.053,1.366C150.002,249.17,150.213,287.499,150.116,296.464
							z"/>
					</g>
				</g>
			</g>
			<rect x="126.918" y="209.572" style="fill:#E71C4A;" width="13.466" height="2.872"/>
			<path style="fill:#FFFFFF;" d="M129.743,177.148c-0.896,4.801-1.51,11.594-2.004,19.201c-0.023,0.347-0.047,0.7-0.068,1.053
				c-0.729,11.487-1.209,24.671-1.993,35.602c-0.405,5.653-0.596,14.151-0.658,23.595v0.003c-0.005,0.789-0.011,1.581-0.013,2.382
				c-0.016,3.43-0.013,6.959,0,10.504c0,0.444,0.002,0.888,0.005,1.332c0.044,10.606,0.193,21.244,0.337,29.598
				c-4.271,0.29-8.54,0.376-12.809,0.253c-2.584-0.07-5.165-0.217-7.748-0.439c-0.12-5.705,0.026-13.232,0.311-21.521
				c0.013-0.35,0.024-0.705,0.037-1.058c0.81-22.819,2.618-50.988,2.868-62.893c0.293-13.757-3.195-30.194-4.927-37.446
				c1.087-0.574,2.129-1.126,3.093-1.648c1.907-1.029,3.498-1.938,4.514-2.654c0.389,0.627,2.685,4.107,5.697,4.365
				c3.305,0.29,6.241-3.597,6.241-3.597v-0.737C124.145,174.107,126.77,175.541,129.743,177.148z"/>
			<g>
				<path style="fill:#EBD7E7;" d="M125.012,270.82c-4.793,3.712-11.293,6.91-19.909,7.892c0.013-0.35,0.024-0.705,0.037-1.058
					c8.702-1.021,15.17-4.365,19.867-8.166C125.007,269.932,125.01,270.376,125.012,270.82z"/>
			</g>
			<g>
				<path style="fill:#EBD7E7;" d="M125.02,256.601c-0.005,0.789-0.011,1.581-0.013,2.382c-0.311,0.546-0.669,1.121-1.084,1.711
					c-2.105,2.999-6.084,6.97-13.088,8.864c-0.044,0.013-0.092,0.018-0.136,0.018c-0.23,0-0.441-0.154-0.504-0.387
					c-0.076-0.277,0.089-0.564,0.368-0.64C119.673,266.086,123.542,259.958,125.02,256.601z"/>
			</g>
			<g>
				<path style="fill:#EBD7E7;" d="M127.74,196.349c-0.023,0.347-0.047,0.7-0.068,1.053c-6.615-1.17-11.803-4.094-15.225-6.586
					c-4.574-3.336-6.999-6.56-7.101-6.695c-0.172-0.23-0.125-0.559,0.107-0.732c0.23-0.172,0.559-0.123,0.732,0.107
					C106.269,183.611,114.087,193.883,127.74,196.349z"/>
			</g>
			<path style="fill:#E71C4A;" d="M108.008,214.761c-0.251,11.905-2.059,40.074-2.868,62.893c-0.013,0.353-0.024,0.708-0.037,1.058
				c-0.285,8.289-0.431,15.815-0.311,21.521c-1.912-0.162-3.827-0.368-5.742-0.617c0.724-18.396,2.782-69.223,3.754-79.602
				c0.917-9.825-3.096-30.844-4.971-39.912c6.4-6.541,12.798-10.097,12.798-10.097v2.91c-0.049,0.068-0.099,0.136-0.149,0.206
				c0.078-0.042,0.146-0.078,0.206-0.11C105.676,180.74,108.301,201.004,108.008,214.761z"/>
			<path style="fill:#E71C4A;" d="M128.411,300.233c1.912-0.162,3.827-0.368,5.742-0.617c-0.724-18.396-2.782-69.223-3.754-79.602
				c-0.917-9.825,3.096-30.844,4.971-39.912c-6.4-6.541-12.744-10.097-12.744-10.097v2.831l0.001,0.207
				c5.013,7.727,2.275,27.96,2.568,41.717c0.251,11.905-0.952,39.822-0.143,62.641l0.297,23.016L128.411,300.233z"/>
		</g>
		<g>
			<path style="fill:#FFAA95;" d="M80.87,213.532c0,0-14.298,11.051-26.486,8.857c-3.529-0.637-24.025-29.43-24.025-29.43
				l3.548-4.666c0,0,8.549,7.896,13.353,12.422c3.949,3.721,8.47,8.456,9.953,10.024c0.321,0.34,0.5,0.53,0.5,0.53
				c0.203-0.209,0.412-0.415,0.626-0.623c5.896-5.701,16.022-11.197,16.022-11.197L80.87,213.532z"/>
			<g>
				<g>
					<g>
						<path style="fill:#FF8B6B;" d="M57.888,216.633c0.008,0.302-0.233,0.56-0.536,0.566c-0.31,0.011-0.563-0.231-0.566-0.536
							c-0.041-1.546,0.148-3.708,0.426-5.924c0.321,0.34,0.5,0.53,0.5,0.53c0.203-0.209,0.412-0.415,0.626-0.623
							C58.05,212.898,57.847,215.103,57.888,216.633z"/>
					</g>
				</g>
			</g>
			<path style="fill:#FF4059;" d="M86.494,187.564c0,0,8.993-0.62,6.33,14.03c-2.533,13.931-22.754,24.65-22.754,24.65
				l-7.779-20.221C62.291,206.024,76.76,193.992,86.494,187.564z"/>
			<g>
				<path style="fill:#E71C4A;" d="M93.588,207.333c-1.574,2.282-4.928,5.729-7.446,8.2c-0.866,0.855-1.636,1.59-2.197,2.12
					c-0.236,0.22-0.534,0.518-0.785,0.766c0.016-0.534,0.031-1.064,0.05-1.586c0.077-0.077,0.162-0.155,0.247-0.24
					c2.309-2.205,7.272-7.055,9.225-9.887c0.17-0.248,0.518-0.313,0.766-0.139C93.704,206.741,93.766,207.085,93.588,207.333z"/>
			</g>
			<path style="fill:#FFAA95;" d="M16.671,179.923c0.593-0.221,2.382,1.136,3.994,2.52c0.05-0.054,0.103-0.109,0.156-0.163
				c-1.975-2.104-5.234-5.829-3.886-6.175c0.883-0.227,3.771,2.872,5.455,4.788c0.106-0.084,0.213-0.168,0.321-0.251
				c-1.973-2.313-5.671-6.918-4.123-7.229c1.033-0.208,4.316,3.807,5.954,5.91c0.1-0.068,0.198-0.134,0.294-0.198
				c-1.595-2.03-4.505-6.027-2.964-6.337c1.396-0.281,5.548,6.121,5.548,6.121l0,0l1.846,2.199c0,0,0.841-0.529,0.319-2.613
				c-0.521-2.085,0.209-3.648,1.459-1.355c1.413,2.591,1.85,5.29,2.892,7.062c1.042,1.772,0,4.378,0,4.378l-3.331,4.382
				c0,0-8.264-4.382-10.754-8.58l0,0C17.879,182.598,15.638,180.308,16.671,179.923z"/>
		</g>
		<g>
			<g>
				<path style="fill:#FFAA95;" d="M169.775,308.605c0.276,2.994-3.371,1.37-2.339-4.697c1.028-6.067-1.894-11.56-3.154-11.385
					c-1.263,0.178,1.044,6.625-0.078,8.948c-1.119,2.323-2.568-2.192-4.01-4.929c-1.496-2.844-1.408-9.049-0.727-13.476
					c0.681-4.43-7.346-31.329-7.387-39.124l-0.978-3.305l-3.581-12.1l-5.606-18.947c0,0,3.358-14.341,9.021-13.109
					c0,0,2.997,9.989,6.202,21.255c0.542,1.913,1.091,3.863,1.633,5.807c2.283,8.168,4.427,16.232,5.424,21.017
					c2.634,12.632,2.837,38.892,2.837,38.892s4.647,9.648,4.757,13.94C171.904,301.97,169.502,305.61,169.775,308.605z"/>
				<path style="fill:#FF8B6B;" d="M158.77,223.544l-7.669,17.094l-3.581-12.1l9.616-10.802
					C157.678,219.65,158.227,221.6,158.77,223.544z"/>
			</g>
			<path style="fill:#FF4059;" d="M159.15,218.452c-3.364,5.769-6.785,11.507-10.193,17.254c-1.122-3.759-2.286-7.368-3.377-10.686
				c-0.003-0.009-0.006-0.016-0.009-0.025c-0.436-1.326-0.862-2.606-1.27-3.828c-0.006-0.022-0.013-0.044-0.022-0.063
				c-0.141-0.43-0.279-0.853-0.42-1.267v-0.003c-1.627-4.919-2.888-8.829-3.248-11.109c-0.972-6.136,1.303-17.023,4.679-20.118
				l0.384-0.292c0.218-0.13,0.302-0.324,0.546-0.073c1.151,1.183,3.932,5.167,5.371,8.811c0.185,0.464,0.373,0.947,0.568,1.439
				C154.243,203.85,156.792,210.82,159.15,218.452z"/>
		</g>
		<g>
			<g>
				<g>
					<g>
						<path style="fill:#E71C4A;" d="M149.469,239.097c-1.11-4.587-2.505-9.685-3.888-14.078c-0.003-0.009-0.006-0.016-0.009-0.025
							c-0.426-1.358-0.853-2.646-1.27-3.828c-0.006-0.022-0.012-0.044-0.022-0.063c-0.129-0.373-0.26-0.734-0.389-1.085
							c-0.019-0.063-0.031-0.122-0.031-0.182v-0.003c0-0.21,0.132-0.408,0.342-0.486c0.273-0.097,0.574,0.041,0.671,0.313
							c1.417,3.863,3.092,9.425,4.527,14.881C149.425,236.053,149.447,237.574,149.469,239.097z"/>
					</g>
				</g>
			</g>
		</g>
	</g>
	<g>
		<g>
			<rect x="300.376" y="324.303" style="fill:#7C36D7;" width="162.118" height="111.986"/>
			<g>
				<polygon style="fill:#5828AA;" points="365.817,382.258 305.072,436.289 300.376,436.289 300.376,433.434 362.325,378.334 				
					"/>
			</g>
			<g>
				<polygon style="fill:#5828AA;" points="462.494,433.813 462.494,436.289 457.374,436.289 396.628,382.258 400.12,378.334 				
					"/>
			</g>
			<polygon style="fill:#8D5CE1;" points="300.371,324.303 381.43,396.395 462.489,324.303 			"/>
		</g>
	</g>
	<g>
		<g>
			<path style="fill:#FFAA95;" d="M363.334,205.214l-9.829,33.217l-0.184,0.621c0,0.154-0.006,0.313-0.011,0.483
				c-0.341,8.244-7.921,33.783-7.264,38.056c0.67,4.364,0.755,10.475-0.717,13.276c-1.42,2.697-2.848,7.143-3.952,4.855
				c-1.104-2.29,1.167-8.64-0.074-8.813c-1.244-0.176-4.122,5.237-3.106,11.213c1.013,5.976-2.579,7.577-2.307,4.628
				c0.269-2.952-2.098-6.539-1.983-11.046c0.11-4.229,4.685-13.732,4.685-13.732s0.201-25.868,2.793-38.312
				c2.595-12.444,13.064-47.361,13.064-47.361C360.028,191.089,363.334,205.214,363.334,205.214z"/>
			<g>
				<g>
					<g>
						<path style="fill:#FF8B6B;" d="M353.505,238.431l-0.184,0.621c0,0.154-0.006,0.313-0.011,0.483
							c-1.87-0.643-3.666-1.187-4.99-1.436c-0.297-0.055-0.497-0.343-0.439-0.643c0.055-0.305,0.343-0.503,0.643-0.439
							C349.869,237.272,351.651,237.799,353.505,238.431z"/>
					</g>
				</g>
			</g>
		</g>
		<g>
			<path style="fill:#FFAA95;" d="M398.818,205.214l9.829,33.217l0.184,0.621c0,0.154,0.005,0.313,0.011,0.483
				c0.341,8.244,7.921,33.783,7.264,38.056c-0.67,4.364-0.755,10.475,0.717,13.276c1.42,2.697,2.848,7.143,3.952,4.855
				c1.104-2.29-1.167-8.64,0.074-8.813c1.244-0.176,4.122,5.237,3.106,11.213c-1.013,5.976,2.579,7.577,2.307,4.628
				c-0.269-2.952,2.098-6.539,1.983-11.046c-0.11-4.229-4.685-13.732-4.685-13.732s-0.201-25.868-2.793-38.312
				c-2.595-12.444-13.064-47.361-13.064-47.361C402.125,191.089,398.818,205.214,398.818,205.214z"/>
			<g>
				<g>
					<g>
						<path style="fill:#FF8B6B;" d="M408.647,238.431l0.184,0.621c0,0.154,0.005,0.313,0.011,0.483
							c1.87-0.643,3.666-1.187,4.99-1.436c0.297-0.055,0.497-0.343,0.439-0.643c-0.055-0.305-0.343-0.503-0.643-0.439
							C412.283,237.272,410.501,237.799,408.647,238.431z"/>
					</g>
				</g>
			</g>
		</g>
		<g>
			<polygon style="fill:#FF8B6B;" points="361.095,418.687 361.095,428.677 368.55,428.677 369.147,418.073 			"/>
			<path style="fill:#FF4059;" d="M378.511,281.92c0,0-4.234,72.332-5.893,88.397c-2.045,19.791-2.15,49.782-2.15,49.782h-10.887
				c-1.418-29.339-4.257-131.555-4.257-131.555l18.333-5.238l1.441-0.411L378.511,281.92z"/>
			<g>
				<path style="fill:#E71C4A;" d="M375.1,282.896c-0.851,17.905-2.912,59.517-4.395,74.828
					c-1.239,12.809-2.444,48.174-2.892,62.376h-1.421c0.448-14.182,1.653-49.652,2.901-62.512
					c1.469-15.146,3.502-56.132,4.367-74.281L375.1,282.896z"/>
				<polygon style="fill:#E71C4A;" points="358.379,416.168 358.87,421.152 371.929,421.152 372.322,416.168 				"/>
			</g>
			<g>
				<g>
					<path style="fill:#FF4059;" d="M362.896,427.995c0,0-1.917-2.515-3.416-2.389c-1.499,0.126-12.963,9.456-16.918,10.261
						c-3.955,0.805-3.152,3.715-2.409,5.198c0.744,1.483,31.613-0.924,31.613-0.924s0.743-9.205-0.298-12.006
						C370.427,425.333,366.003,428.625,362.896,427.995z"/>
					<g>
						<g>
							<path style="fill:#FFFFFF;" d="M356.574,434.486c0.141,0.04,0.297,0.026,0.433-0.054c0.265-0.155,0.354-0.495,0.199-0.759
								c-0.052-0.089-1.286-2.177-2.925-2.979c-2.18-1.07-3.856,0.175-3.927,0.228c-0.244,0.185-0.292,0.534-0.106,0.778
								c0.185,0.244,0.534,0.292,0.778,0.105c0.046-0.034,1.213-0.873,2.766-0.114c1.335,0.654,2.444,2.525,2.455,2.543
								C356.323,434.362,356.442,434.448,356.574,434.486z"/>
						</g>
						<g>
							<path style="fill:#FFFFFF;" d="M358.211,432.904c0.141,0.04,0.297,0.025,0.433-0.054c0.264-0.155,0.354-0.495,0.199-0.76
								c-0.052-0.089-1.286-2.177-2.925-2.98c-2.182-1.071-3.856,0.174-3.927,0.228c-0.244,0.185-0.291,0.534-0.106,0.778
								c0.185,0.244,0.534,0.292,0.778,0.105c0.046-0.033,1.214-0.874,2.766-0.114c1.341,0.657,2.444,2.524,2.455,2.543
								C357.96,432.779,358.079,432.866,358.211,432.904z"/>
						</g>
						<g>
							<path style="fill:#FFFFFF;" d="M354.345,435.781c0.141,0.04,0.297,0.025,0.434-0.054c0.265-0.155,0.354-0.495,0.199-0.76
								c-0.052-0.088-1.286-2.177-2.925-2.98c-2.182-1.071-3.856,0.174-3.927,0.228c-0.244,0.185-0.291,0.534-0.105,0.778
								c0.185,0.244,0.534,0.292,0.778,0.105c0.046-0.033,1.214-0.874,2.766-0.114c1.341,0.657,2.444,2.524,2.455,2.543
								C354.094,435.656,354.213,435.743,354.345,435.781z"/>
						</g>
					</g>
				</g>
			</g>
		</g>
		<g>
			<polygon style="fill:#FF8B6B;" points="394.133,419.767 394.445,428.115 402.076,427.707 402.244,418.842 			"/>
			<g>
				<g>
					<path style="fill:#FF4059;" d="M397.884,425.862c0,0,4.071-0.894,5.182-0.823c1.112,0.072,8.191,8.736,10.678,9.339
						c4.51,1.093,4.2,8.198,1.415,8.427c-8.054,0.664-21.603-3.331-21.603-3.331s-0.856-9.172-0.18-12.009
						C394.052,424.63,395.609,426.603,397.884,425.862z"/>
					<g>
						<g>
							<path style="fill:#FFFFFF;" d="M404.169,433.939c-0.144,0.025-0.298-0.007-0.425-0.1c-0.246-0.182-0.299-0.53-0.117-0.776
								c0.061-0.082,1.511-2.028,3.226-2.651c2.282-0.832,3.816,0.585,3.88,0.645c0.223,0.21,0.233,0.562,0.022,0.785
								c-0.21,0.223-0.562,0.233-0.785,0.022c-0.042-0.038-1.113-0.998-2.738-0.408c-1.397,0.508-2.699,2.249-2.712,2.267
								C404.431,433.842,404.304,433.916,404.169,433.939z"/>
						</g>
						<g>
							<path style="fill:#FFFFFF;" d="M402.71,432.192c-0.144,0.025-0.298-0.007-0.425-0.1c-0.247-0.182-0.299-0.53-0.117-0.777
								c0.061-0.083,1.511-2.028,3.226-2.651c2.284-0.832,3.816,0.584,3.88,0.646c0.223,0.21,0.233,0.562,0.022,0.785
								c-0.21,0.223-0.562,0.233-0.785,0.022c-0.042-0.038-1.114-0.998-2.738-0.409c-1.403,0.51-2.699,2.249-2.712,2.267
								C402.973,432.094,402.845,432.168,402.71,432.192z"/>
						</g>
						<g>
							<path style="fill:#FFFFFF;" d="M406.247,435.464c-0.144,0.025-0.298-0.006-0.425-0.1c-0.247-0.182-0.299-0.53-0.117-0.777
								c0.061-0.082,1.511-2.028,3.226-2.651c2.283-0.832,3.816,0.584,3.88,0.645c0.223,0.21,0.233,0.562,0.022,0.785
								c-0.21,0.223-0.562,0.233-0.785,0.022c-0.042-0.038-1.114-0.998-2.738-0.408c-1.404,0.51-2.699,2.249-2.712,2.267
								C406.51,435.367,406.383,435.441,406.247,435.464z"/>
						</g>
					</g>
				</g>
			</g>
			<path style="fill:#FF4059;" d="M407.706,288.544c0,0-2.839,102.216-4.259,131.555h-9.871c-0.624-0.142-1.662-31.508-1.534-46.969
				c0.111-13.461-7.523-91.21-7.523-91.21l2.861,0.817l1.46,0.417L407.706,288.544z"/>
			<g>
				<path style="fill:#E71C4A;" d="M396.11,397.232c-0.142,8.289-0.278,16.283-0.147,22.868h-1.421
					c-0.13-6.613,0.008-14.607,0.15-22.893c0.238-13.887,0.485-28.247-0.485-38.014c-1.676-16.913-5.952-66.326-6.828-76.456
					l1.46,0.417c0.97,11.23,5.13,59.279,6.78,75.897C396.595,368.899,396.348,383.302,396.11,397.232z"/>
				<polygon style="fill:#E71C4A;" points="391.217,416.168 391.708,421.152 404.767,421.152 405.16,416.168 				"/>
			</g>
		</g>
		<g>
			<path style="fill:#7C36D7;" d="M408.929,290.444c-10.598,2.453-19.164,3.705-27.623,3.782c-0.052,0-0.104,0.006-0.154,0
				c-0.052,0.006-0.102,0-0.156,0c-8.462-0.077-17.019-1.329-27.623-3.782c-1.483-19.002,5.009-31.031,4.287-52.332
				c-0.005-0.184-0.014-0.371-0.019-0.555c-0.033-0.92-0.074-1.832-0.118-2.741c-0.085-1.727-0.187-3.436-0.305-5.116
				c-0.063-0.923-0.132-1.837-0.203-2.741c-1.461-18.403-4.378-32.984-2.796-34.977c1.716-2.167,6.083-4.724,10.521-7.097
				c4.21-2.247,8.481-4.328,10.62-5.754c2.123,0.926,3.815,1.431,5.636,1.423c0.049,0,0.104,0,0.156-0.005
				c0.049,0.005,0.104,0.005,0.154,0.005c1.821,0.008,3.513-0.497,5.638-1.423c1.986,1.321,5.726,3.164,9.541,5.174
				c4.638,2.444,9.387,5.136,11.222,7.454c1.648,2.082-1.307,18.024-2.617,37.592c-0.058,0.879-0.113,1.763-0.165,2.656
				c-0.113,1.928-0.206,3.886-0.275,5.866c-0.003,0.08-0.006,0.159-0.008,0.239c-0.027,0.783-0.044,1.552-0.052,2.31
				C404.384,260.305,410.357,272.139,408.929,290.444z"/>
			<g>
				<g>
					<path style="fill:#5828AA;" d="M405.09,229.351c-0.058,0.879-0.113,1.763-0.165,2.656c-2.42,1.277-5.114,1.909-8.126,1.909
						c-0.758,0-1.535-0.041-2.332-0.121c-5.375-0.536-10.829-2.804-15.641-4.803c-2.595-1.079-5.045-2.098-7.162-2.711
						c-7.217-2.082-12.084,1.156-14.446,3.419c-0.063-0.923-0.132-1.837-0.203-2.741c0.431-0.34,0.904-0.681,1.42-1.011
						c2.84-1.813,7.547-3.595,13.836-1.777c2.238,0.645,4.746,1.686,7.399,2.79C388.095,230.466,397.499,234.374,405.09,229.351z"/>
				</g>
				<g>
					<path style="fill:#5828AA;" d="M404.65,237.873c-0.003,0.08-0.006,0.159-0.008,0.239c-0.027,0.783-0.044,1.552-0.052,2.31
						c-2.332,1.162-4.919,1.736-7.791,1.736c-0.758,0-1.533-0.038-2.332-0.118c-5.375-0.538-10.829-2.807-15.641-4.806
						c-2.595-1.079-5.045-2.098-7.162-2.708c-6.811-1.966-11.529,0.81-14.023,3.032c-0.033-0.92-0.074-1.832-0.118-2.741
						c0.288-0.211,0.59-0.42,0.912-0.626c2.84-1.813,7.544-3.592,13.836-1.777c2.238,0.645,4.746,1.689,7.399,2.79
						C387.933,238.639,397.136,242.468,404.65,237.873z"/>
				</g>
			</g>
			<g>
				<path style="fill:#5828AA;" d="M398.304,266.422c-0.001,0-0.002,0-0.002,0c-10.682-0.047-19.801-4.908-25.569-8.978
					c-6.238-4.401-10.019-8.861-10.056-8.906c-0.183-0.217-0.155-0.541,0.063-0.724c0.217-0.183,0.542-0.155,0.724,0.062
					c0.037,0.044,3.749,4.419,9.885,8.744c5.643,3.977,14.553,8.728,24.957,8.773c0.284,0.001,0.513,0.232,0.512,0.516
					C398.817,266.194,398.587,266.422,398.304,266.422z"/>
			</g>
			<g>
				<path style="fill:#5828AA;" d="M387.171,270.052c-9.27,0-18.513-5.282-18.934-5.526c-0.246-0.142-0.33-0.456-0.187-0.702
					c0.142-0.246,0.457-0.329,0.702-0.188c0.109,0.063,10.986,6.274,20.63,5.277c0.286-0.032,0.535,0.176,0.564,0.458
					c0.029,0.282-0.176,0.535-0.458,0.564C388.719,270.015,387.945,270.052,387.171,270.052z"/>
			</g>
			<g>
				<path style="fill:#5828AA;" d="M378.964,205.111c-0.242,0-0.458-0.172-0.504-0.418c-0.053-0.279,0.13-0.548,0.409-0.601
					c13.024-2.471,16.95-10.85,16.988-10.934c0.117-0.258,0.421-0.374,0.68-0.257c0.259,0.117,0.373,0.421,0.257,0.68
					c-0.165,0.364-4.189,8.951-17.733,11.521C379.028,205.108,378.996,205.111,378.964,205.111z"/>
			</g>
			<path style="fill:#FFAA95;" d="M396.484,184.305c-2.585,5.896-8.658,13.894-16.923,12.467
				c-8.003-1.383-12.081-7.508-14.82-11.887c4.208-2.247,8.479-4.329,10.619-5.753c2.123,0.924,3.815,1.43,5.635,1.422
				c0.049,0,0.104,0,0.157-0.005c0.05,0.005,0.105,0.005,0.154,0.005c1.821,0.008,3.512-0.498,5.638-1.422
				C388.929,180.452,392.67,182.295,396.484,184.305z"/>
			<g>
				<path style="fill:#FFFFFF;" d="M382.229,189.058c-7.48,0.77-10.22-8.284-10.247-8.378c-0.057-0.196,0.055-0.402,0.251-0.46
					c0.197-0.057,0.403,0.055,0.46,0.251c0.107,0.364,2.701,8.907,9.893,7.793c6.295-0.971,5.944-8.033,5.926-8.333
					c-0.012-0.204,0.141-0.381,0.348-0.392c0.204-0.012,0.38,0.143,0.392,0.347c0.005,0.08,0.413,8.036-6.553,9.111
					C382.541,189.022,382.384,189.042,382.229,189.058z"/>
			</g>
		</g>
		<g>
			<path style="fill:#29245D;" d="M366.987,158.855c0,0-6.156-10.523-0.965-18.648c5.191-8.125,16.217-7.359,19.074-6.72
				c2.856,0.639,19.299,8.349,9.352,27.046L366.987,158.855z"/>
			<g>
				<path style="fill:#FF8B6B;" d="M368.015,155.876c0,0-2.492-3.322-4.344-0.575s0.767,10.861,5.303,8.88L368.015,155.876z"/>
				<g>
					<path style="fill:#D85C48;" d="M367.983,161.674c-0.168,0-0.322-0.111-0.369-0.28c-0.703-2.505-3.298-3.52-3.324-3.53
						c-0.197-0.076-0.297-0.297-0.222-0.494c0.075-0.198,0.296-0.297,0.494-0.223c0.121,0.046,2.981,1.156,3.791,4.041
						c0.057,0.204-0.062,0.415-0.266,0.473C368.052,161.669,368.017,161.674,367.983,161.674z"/>
				</g>
				<g>
					<path style="fill:#D85C48;" d="M365.363,160.412c-0.071,0-0.143-0.02-0.207-0.061c-0.178-0.115-0.229-0.352-0.115-0.53
						c0.019-0.03,0.478-0.73,1.439-1.16c0.192-0.087,0.42,0,0.506,0.193c0.086,0.193,0,0.42-0.193,0.506
						c-0.743,0.332-1.104,0.87-1.107,0.875C365.613,160.35,365.49,160.412,365.363,160.412z"/>
				</g>
			</g>
			<g>
				<path style="fill:#FF8B6B;" d="M393.693,155.876c0,0,2.492-3.322,4.344-0.575c1.853,2.747-0.767,10.861-5.303,8.88
					L393.693,155.876z"/>
				<g>
					<path style="fill:#D85C48;" d="M393.725,161.674c0.167,0,0.321-0.111,0.369-0.28c0.703-2.505,3.298-3.52,3.324-3.53
						c0.197-0.076,0.297-0.297,0.222-0.494c-0.075-0.198-0.296-0.297-0.494-0.223c-0.121,0.046-2.981,1.156-3.791,4.041
						c-0.057,0.204,0.062,0.415,0.266,0.473C393.656,161.669,393.691,161.674,393.725,161.674z"/>
				</g>
				<g>
					<g>
						<g>
							<path style="fill:#D85C48;" d="M396.344,160.412c0.071,0,0.143-0.02,0.207-0.061c0.178-0.115,0.229-0.352,0.115-0.53
								c-0.019-0.03-0.478-0.73-1.439-1.16c-0.192-0.087-0.42,0-0.506,0.193c-0.086,0.193,0,0.42,0.193,0.506
								c0.743,0.332,1.104,0.87,1.107,0.875C396.095,160.35,396.219,160.412,396.344,160.412z"/>
						</g>
					</g>
				</g>
			</g>
			<path style="fill:#FFAA95;" d="M386.987,171.063v8.069c0,0-2.406,4.109-5.661,4.389c-3.251,0.283-6.14-3.538-6.14-3.538v-8.352
				L386.987,171.063z"/>
			<path style="fill:#FF8B6B;" d="M386.987,171.063v3.58c-2.184,2.423-6.062,3.028-11.8,2.181v-5.194L386.987,171.063z"/>
			<path style="fill:#FFAA95;" d="M395.494,150.341c-0.149,3.135-0.448,7.057-1.047,10.193c-0.149,0.782-0.318,1.518-0.506,2.177
				c-1.698,5.945-5.945,16.142-17.836,11.895c-5.252-1.874-7.686-7.724-8.771-13.673c-0.736-4.04-0.847-8.123-0.793-11.04
				c0.058-2.978,1.683-5.7,4.274-7.168c7.019-3.979,14.424-2.495,19.3-0.621C393.501,143.403,395.667,146.726,395.494,150.341z"/>
			<path style="fill:#29245D;" d="M377.649,138.854c0,0,15.69,25.167,17.854,15.936C398.57,141.708,389.196,133.615,377.649,138.854
				z"/>
			<path style="fill:#29245D;" d="M376.997,138.852c-10.442,0.077-15.635,11.941-10.792,13.346
				c6.738,1.955,12.582-7.583,14.379-10.893C379.375,140.507,378.163,139.711,376.997,138.852z"/>
			<path style="fill:#29245D;" d="M396.019,133.208c0,5.703-4.623,10.326-10.326,10.326c-5.703,0-10.326-4.623-10.326-10.326
				c0-5.703,4.623-10.326,10.326-10.326C391.396,122.882,396.019,127.505,396.019,133.208z"/>
			<path style="fill:#29245D;" d="M368.367,151.071c0,0,0.813,3.156-0.297,5.278c-1.109,2.122-0.5,5.76,0,9.848
				c0,0-1.762-2.492-1.865-6.484c-0.103-3.993,0.55-7.315,0-8.912L368.367,151.071z"/>
			<path style="fill:#29245D;" d="M393.021,151.071c0,0-0.812,3.156,0.297,5.278c1.109,2.122,0.5,5.76,0,9.848
				c0,0,1.762-2.492,1.865-6.484c0.103-3.993-0.55-7.315,0-8.912L393.021,151.071z"/>
			<path style="fill:#29245D;" d="M375.618,156.35c0,0.861-0.444,1.56-0.991,1.56c-0.548,0-0.992-0.698-0.992-1.56
				c0-0.861,0.444-1.56,0.992-1.56C375.174,154.79,375.618,155.488,375.618,156.35z"/>
			<path style="fill:#29245D;" d="M387.862,156.35c0,0.861-0.444,1.56-0.992,1.56c-0.548,0-0.992-0.698-0.992-1.56
				c0-0.861,0.444-1.56,0.992-1.56C387.418,154.79,387.862,155.488,387.862,156.35z"/>
			<path style="fill:#29245D;" d="M372.662,151.706c0.824-0.233,2.487-0.63,4.241-0.635c0.462-0.001,0.816,0.409,0.734,0.863
				l-0.002,0.012c-0.065,0.363-0.39,0.62-0.758,0.602c-1.194-0.056-4.328,0.112-5.808,0.712c-0.03-0.257,0.122-0.539,0.338-0.789
				C371.733,152.093,372.181,151.842,372.662,151.706z"/>
			<path style="fill:#29245D;" d="M388.682,151.738c-0.824-0.233-2.487-0.63-4.241-0.635c-0.462-0.001-0.816,0.409-0.734,0.864
				l0.002,0.011c0.065,0.363,0.39,0.62,0.758,0.603c1.194-0.056,4.328,0.112,5.808,0.712c0.03-0.257-0.122-0.539-0.337-0.789
				C389.612,152.125,389.164,151.874,388.682,151.738z"/>
			<g>
				<g>
					<g>
						<path style="fill:#FF8B6B;" d="M380.987,163.465c-0.294,0-0.588-0.052-0.833-0.199c-0.224-0.134-0.503-0.406-0.557-0.936
							c-0.146-1.409,0.215-5.825,0.23-6.013c0.017-0.211,0.202-0.368,0.413-0.35c0.211,0.017,0.368,0.203,0.35,0.413
							c-0.004,0.045-0.37,4.532-0.232,5.871c0.024,0.233,0.119,0.315,0.189,0.357c0.36,0.216,1.191-0.005,1.538-0.145
							c0.196-0.081,0.42,0.015,0.499,0.21c0.08,0.196-0.014,0.419-0.21,0.5C382.275,163.214,381.634,163.465,380.987,163.465z"/>
					</g>
				</g>
			</g>
			<path style="fill:#F6F6F6;" d="M376.119,165.886c0.29,1.458,1.253,4.141,4.498,4.141c3.253,0,4.165-2.451,4.478-4.141H376.119z"
				/>
			<g>
				<path style="fill:#FF8B6B;" d="M380.57,172.263c-0.936,0-1.763-0.504-1.798-0.526c-0.18-0.111-0.236-0.348-0.124-0.528
					c0.111-0.18,0.346-0.235,0.527-0.125l0,0c0.007,0.004,0.681,0.412,1.396,0.412c0.773,0,1.465-0.409,1.472-0.413
					c0.182-0.109,0.417-0.05,0.526,0.131c0.109,0.181,0.051,0.416-0.129,0.525C382.404,171.76,381.563,172.263,380.57,172.263z"/>
			</g>
		</g>
	</g>
	<g>
		<g>
			<g>
				<path style="fill:#7C36D7;" d="M63.66,117.212c0-3.126,2.544-5.67,5.67-5.67c3.126,0,5.67,2.544,5.67,5.67
					c0,3.127-2.544,5.67-5.67,5.67C66.204,122.882,63.66,120.339,63.66,117.212z M65.439,117.212c0,2.146,1.746,3.891,3.891,3.891
					c2.146,0,3.891-1.746,3.891-3.891c0-2.146-1.746-3.891-3.891-3.891C67.185,113.321,65.439,115.066,65.439,117.212z"/>
			</g>
			<g>
				<path style="fill:#7C36D7;" d="M82.064,102.575c0-3.127,2.544-5.67,5.67-5.67c3.127,0,5.67,2.544,5.67,5.67
					c0,3.127-2.544,5.67-5.67,5.67C84.608,108.246,82.064,105.702,82.064,102.575z M83.843,102.575c0,2.146,1.746,3.891,3.891,3.891
					c2.146,0,3.891-1.746,3.891-3.891c0-2.146-1.746-3.891-3.891-3.891C85.589,98.684,83.843,100.43,83.843,102.575z"/>
			</g>
			<g>
				<g>
					<g>
						<path style="fill:#FF4059;" d="M55.397,135.351c0.491,0,0.889-0.398,0.889-0.89v-3.922c0-0.491-0.398-0.889-0.889-0.889
							c-0.491,0-0.889,0.398-0.889,0.889v3.922C54.507,134.953,54.906,135.351,55.397,135.351z"/>
					</g>
					<g>
						<path style="fill:#FF4059;" d="M55.397,142.215c0.491,0,0.889-0.398,0.889-0.889v-3.922c0-0.491-0.398-0.889-0.889-0.889
							c-0.491,0-0.889,0.398-0.889,0.889v3.922C54.507,141.817,54.906,142.215,55.397,142.215z"/>
					</g>
				</g>
				<g>
					<g>
						<path style="fill:#FF4059;" d="M49.891,136.822h3.524c0.491,0,0.889-0.398,0.889-0.89c0-0.491-0.398-0.889-0.889-0.889h-3.524
							c-0.491,0-0.889,0.398-0.889,0.889C49.002,136.424,49.4,136.822,49.891,136.822z"/>
					</g>
					<g>
						<path style="fill:#FF4059;" d="M57.379,136.822h3.523c0.491,0,0.889-0.398,0.889-0.89c0-0.491-0.398-0.889-0.889-0.889h-3.523
							c-0.491,0-0.889,0.398-0.889,0.889C56.489,136.424,56.888,136.822,57.379,136.822z"/>
					</g>
				</g>
			</g>
			<g>
				<g>
					<g>
						<path style="fill:#FF4059;" d="M67.201,88.428c0.491,0,0.889-0.398,0.889-0.889v-3.923c0-0.491-0.398-0.889-0.889-0.889
							c-0.491,0-0.889,0.398-0.889,0.889v3.923C66.311,88.03,66.71,88.428,67.201,88.428z"/>
					</g>
					<g>
						<path style="fill:#FF4059;" d="M67.201,95.293c0.491,0,0.889-0.398,0.889-0.889v-3.922c0-0.491-0.398-0.89-0.889-0.89
							c-0.491,0-0.889,0.398-0.889,0.89v3.922C66.311,94.894,66.71,95.293,67.201,95.293z"/>
					</g>
				</g>
				<g>
					<g>
						<path style="fill:#FF4059;" d="M61.695,89.899h3.524c0.491,0,0.889-0.398,0.889-0.889c0-0.491-0.398-0.89-0.889-0.89h-3.524
							c-0.491,0-0.889,0.398-0.889,0.89C60.806,89.501,61.204,89.899,61.695,89.899z"/>
					</g>
					<g>
						<path style="fill:#FF4059;" d="M69.183,89.899h3.523c0.491,0,0.889-0.398,0.889-0.889c0-0.491-0.398-0.89-0.889-0.89h-3.523
							c-0.491,0-0.89,0.398-0.89,0.89C68.294,89.501,68.692,89.899,69.183,89.899z"/>
					</g>
				</g>
			</g>
		</g>
		<g>
			<g>
				<path style="fill:#7C36D7;" d="M445.277,190.995c3.126,0,5.67,2.544,5.67,5.67s-2.544,5.67-5.67,5.67
					c-3.126,0-5.67-2.544-5.67-5.67S442.151,190.995,445.277,190.995z M445.277,200.557c2.146,0,3.891-1.746,3.891-3.891
					c0-2.146-1.746-3.891-3.891-3.891c-2.146,0-3.891,1.746-3.891,3.891C441.386,198.811,443.132,200.557,445.277,200.557z"/>
			</g>
			<g>
				<path style="fill:#FF4059;" d="M424.865,171.103c3.127,0,5.67,2.544,5.67,5.67c0,3.127-2.544,5.67-5.67,5.67
					c-3.126,0-5.67-2.544-5.67-5.67C419.195,173.646,421.739,171.103,424.865,171.103z M424.865,180.664
					c2.146,0,3.891-1.746,3.891-3.891c0-2.146-1.746-3.891-3.891-3.891c-2.146,0-3.891,1.746-3.891,3.891
					C420.974,178.919,422.72,180.664,424.865,180.664z"/>
			</g>
			<g>
				<g>
					<g>
						<path style="fill:#7C36D7;" d="M417.86,152.677c0.491,0,0.889,0.398,0.889,0.889v3.922c0,0.491-0.398,0.889-0.889,0.889
							c-0.491,0-0.889-0.398-0.889-0.889v-3.922C416.97,153.075,417.368,152.677,417.86,152.677z"/>
					</g>
					<g>
						<path style="fill:#7C36D7;" d="M417.86,145.813c0.491,0,0.889,0.398,0.889,0.889v3.922c0,0.491-0.398,0.89-0.889,0.89
							c-0.491,0-0.889-0.398-0.889-0.89v-3.922C416.97,146.211,417.368,145.813,417.86,145.813z"/>
					</g>
				</g>
				<g>
					<g>
						<path style="fill:#7C36D7;" d="M412.354,151.206h3.523c0.491,0,0.889,0.398,0.889,0.889c0,0.491-0.398,0.889-0.889,0.889
							h-3.523c-0.491,0-0.889-0.398-0.889-0.889C411.464,151.604,411.863,151.206,412.354,151.206z"/>
					</g>
					<g>
						<path style="fill:#7C36D7;" d="M419.842,151.206h3.523c0.491,0,0.889,0.398,0.889,0.889c0,0.491-0.398,0.889-0.889,0.889
							h-3.523c-0.491,0-0.889-0.398-0.889-0.889C418.952,151.604,419.351,151.206,419.842,151.206z"/>
					</g>
				</g>
			</g>
			<g>
				<g>
					<g>
						<g>
							<path style="fill:#FF4059;" d="M449.169,174.656c0.491,0,0.889,0.398,0.889,0.889v3.922c0,0.491-0.398,0.889-0.889,0.889
								c-0.491,0-0.889-0.398-0.889-0.889v-3.922C448.279,175.054,448.678,174.656,449.169,174.656z"/>
						</g>
						<g>
							<path style="fill:#FF4059;" d="M449.169,167.792c0.491,0,0.889,0.398,0.889,0.889v3.922c0,0.491-0.398,0.889-0.889,0.889
								c-0.491,0-0.889-0.398-0.889-0.889v-3.922C448.279,168.19,448.678,167.792,449.169,167.792z"/>
						</g>
					</g>
					<g>
						<g>
							<path style="fill:#FF4059;" d="M443.663,173.185h3.523c0.491,0,0.889,0.398,0.889,0.889c0,0.491-0.398,0.889-0.889,0.889
								h-3.523c-0.491,0-0.889-0.398-0.889-0.889C442.774,173.583,443.172,173.185,443.663,173.185z"/>
						</g>
						<g>
							<path style="fill:#FF4059;" d="M451.151,173.185h3.523c0.491,0,0.889,0.398,0.889,0.889c0,0.491-0.398,0.889-0.889,0.889
								h-3.523c-0.491,0-0.889-0.398-0.889-0.889C450.261,173.583,450.66,173.185,451.151,173.185z"/>
						</g>
					</g>
				</g>
			</g>
		</g>
	</g>
</g>
<g id="DESIGNED_BY_FREEPIK">
	<g>
		<g id="XMLID_1_">
			<g id="XMLID_20_">
				<path id="XMLID_28_" style="fill:#112129;" d="M260.104,465.465c-0.432,0.443-0.803,0.931-1.108,1.453l-0.465-0.241
					c-0.067-0.298-0.349-0.503-0.659-0.466c-0.331,0.039-0.568,0.339-0.529,0.67c0.039,0.331,0.339,0.568,0.67,0.529
					c0.065-0.008,0.127-0.026,0.183-0.052l0.452,0.234c-0.251,0.554-0.433,1.139-0.539,1.744l0.747,0.132
					c0.23-1.306,0.85-2.507,1.792-3.473L260.104,465.465z"/>
				<path id="XMLID_27_" style="fill:#112129;" d="M265.592,463.163c-0.171,0-0.341,0.006-0.51,0.017l-0.074-0.626
					c0.188-0.149,0.296-0.389,0.266-0.645c-0.046-0.393-0.402-0.674-0.795-0.628c-0.393,0.046-0.674,0.402-0.628,0.795
					c0.03,0.254,0.189,0.461,0.405,0.564l0.073,0.624c-0.714,0.116-1.403,0.332-2.06,0.646l0.327,0.684
					c0.934-0.447,1.942-0.673,2.995-0.673c0.496,0,0.993,0.053,1.475,0.158l0.161-0.741
					C266.692,463.222,266.142,463.163,265.592,463.163z"/>
				<path id="XMLID_26_" style="fill:#112129;" d="M272.194,465.711c0.331-0.04,0.566-0.341,0.526-0.672
					c-0.04-0.331-0.341-0.566-0.672-0.526c-0.309,0.038-0.535,0.304-0.53,0.609l-0.416,0.363c-0.418-0.43-0.89-0.813-1.408-1.139
					l-0.404,0.641c1.134,0.715,2.021,1.726,2.563,2.925l0.691-0.313c-0.251-0.554-0.568-1.072-0.942-1.545l0.402-0.351
					C272.065,465.716,272.129,465.719,272.194,465.711z"/>
				<path id="XMLID_25_" style="fill:#112129;" d="M265.044,473.372c-0.386,0.023-0.775,0.035-1.157,0.035
					c-0.88,0-1.733-0.061-2.478-0.179c-0.39-0.062-0.846-0.155-1.27-0.292c1.046,1.861,3.069,3.125,5.388,3.125
					c2.855,0,5.262-1.916,5.95-4.504c-0.682,0.449-1.505,0.825-2.459,1.123C267.839,473.047,266.464,473.286,265.044,473.372z"/>
				<path id="XMLID_21_" style="fill:#112129;" d="M265.592,464.68c-3.352,0-6.08,2.666-6.08,5.943c0,0.426,0.046,0.849,0.137,1.261
					c0.673,0.483,2.706,0.89,5.348,0.731c2.879-0.173,5.297-0.957,6.672-2.159c-0.005-0.195-0.021-0.39-0.045-0.582
					C271.244,466.913,268.65,464.68,265.592,464.68z M263.432,471.194c-1.02,0-1.85-0.83-1.85-1.85c0-1.02,0.83-1.85,1.85-1.85
					c1.02,0,1.85,0.83,1.85,1.85C265.282,470.365,264.452,471.194,263.432,471.194z M268.17,470.286c-0.75,0-1.36-0.61-1.36-1.36
					s0.61-1.361,1.36-1.361c0.75,0,1.361,0.61,1.361,1.361S268.92,470.286,268.17,470.286z"/>
			</g>
			<path id="XMLID_18_" style="fill:#112129;" d="M281.595,466.547c-0.295-0.116-0.805-0.309-1.382-0.237
				c-0.551,0.069-0.844,0.341-0.844,1.007v0.866h2.228v1.717h-2.228v5.455h-1.932v-5.455h-1.34v-1.717h1.34v-0.888
				c0-1.68,0.896-2.783,2.568-2.783c0.643,0,1.157,0.122,1.59,0.308L281.595,466.547z"/>
			<path id="XMLID_16_" style="fill:#112129;" d="M286.298,469.879c-0.177-0.03-0.358-0.046-0.526-0.046
				c-0.896,0-1.51,0.548-1.51,1.614v3.908h-1.932v-7.172h1.873v0.785c0.451-0.673,1.14-0.977,2.021-0.977
				c0.414,0,0.848,0.128,1.094,0.337L286.298,469.879z"/>
			<path id="XMLID_13_" style="fill:#112129;" d="M293.965,471.757c0,0.222-0.015,0.489-0.037,0.651h-5.085
				c0.207,1.036,0.933,1.488,1.843,1.488c0.622,0,1.295-0.252,1.813-0.688l1.132,1.243c-0.814,0.748-1.85,1.088-3.057,1.088
				c-2.198,0-3.723-1.495-3.723-3.753c0-2.258,1.48-3.797,3.627-3.797C292.544,467.99,293.958,469.522,293.965,471.757z
				 M288.851,471.091h3.175c-0.177-0.918-0.733-1.436-1.562-1.436C289.554,469.655,289.021,470.203,288.851,471.091z"/>
			<path id="XMLID_10_" style="fill:#112129;" d="M301.618,471.757c0,0.222-0.015,0.489-0.037,0.651h-5.085
				c0.207,1.036,0.933,1.488,1.843,1.488c0.622,0,1.295-0.252,1.813-0.688l1.132,1.243c-0.814,0.748-1.85,1.088-3.057,1.088
				c-2.198,0-3.723-1.495-3.723-3.753c0-2.258,1.48-3.797,3.627-3.797C300.197,467.99,301.611,469.522,301.618,471.757z
				 M296.504,471.091h3.175c-0.178-0.918-0.733-1.436-1.562-1.436C297.207,469.655,296.674,470.203,296.504,471.091z"/>
			<path id="XMLID_7_" style="fill:#112129;" d="M309.964,471.764c0,2.154-1.495,3.775-3.471,3.775
				c-0.962,0-1.643-0.378-2.109-0.933v3.708h-1.924v-10.133h1.887v0.792c0.466-0.585,1.155-0.984,2.139-0.984
				C308.469,467.99,309.964,469.61,309.964,471.764z M304.287,471.764c0,1.132,0.747,1.976,1.843,1.976
				c1.14,0,1.85-0.881,1.85-1.976c0-1.095-0.71-1.976-1.85-1.976C305.035,469.788,304.287,470.632,304.287,471.764z"/>
			<path id="XMLID_4_" style="fill:#112129;" d="M313.068,465.836c0,0.696-0.54,1.229-1.236,1.229c-0.696,0-1.229-0.533-1.229-1.229
				c0-0.696,0.533-1.243,1.229-1.243C312.527,464.592,313.068,465.14,313.068,465.836z M312.809,475.354h-1.932v-7.172h1.932
				V475.354z"/>
			<path id="XMLID_2_" style="fill:#112129;" d="M316.032,470.736l2.701-2.554h2.368l-3.479,3.375l3.501,3.797h-2.376l-2.716-2.901
				v2.901H314.1v-10.658h1.932V470.736z"/>
		</g>
		<g>
			<path style="fill:#112129;" d="M184.412,475.289v-1.055c-0.527,0.718-1.391,1.23-2.387,1.23c-1.846,0-3.149-1.406-3.149-3.706
				c0-2.256,1.289-3.721,3.149-3.721c0.952,0,1.816,0.469,2.387,1.245v-3.765h1.099v9.77H184.412z M184.412,473.37v-3.208
				c-0.395-0.615-1.245-1.143-2.124-1.143c-1.421,0-2.27,1.172-2.27,2.739c0,1.567,0.85,2.724,2.27,2.724
				C183.168,474.483,184.017,473.986,184.412,473.37z"/>
			<path style="fill:#112129;" d="M186.932,471.744c0-2.051,1.465-3.706,3.486-3.706c2.139,0,3.398,1.67,3.398,3.794v0.279h-5.727
				c0.088,1.333,1.025,2.446,2.549,2.446c0.805,0,1.626-0.322,2.182-0.894l0.527,0.718c-0.703,0.703-1.655,1.084-2.812,1.084
				C188.44,475.465,186.932,473.956,186.932,471.744z M190.403,468.947c-1.509,0-2.256,1.274-2.314,2.358h4.643
				C192.718,470.25,192.015,468.947,190.403,468.947z"/>
			<path style="fill:#112129;" d="M194.607,474.351l0.571-0.791c0.469,0.542,1.362,1.011,2.329,1.011c1.084,0,1.67-0.513,1.67-1.216
				c0-1.714-4.38-0.659-4.38-3.281c0-1.098,0.952-2.036,2.636-2.036c1.201,0,2.051,0.454,2.622,1.026l-0.513,0.762
				c-0.424-0.513-1.201-0.894-2.109-0.894c-0.967,0-1.567,0.483-1.567,1.113c0,1.552,4.38,0.527,4.38,3.281
				c0,1.187-0.952,2.138-2.783,2.138C196.306,475.465,195.325,475.113,194.607,474.351z"/>
			<path style="fill:#112129;" d="M201.477,466.471c0-0.41,0.337-0.747,0.732-0.747c0.41,0,0.747,0.337,0.747,0.747
				c0,0.41-0.337,0.732-0.747,0.732C201.814,467.203,201.477,466.881,201.477,466.471z M201.667,475.289v-7.075h1.099v7.075H201.667
				z"/>
			<path style="fill:#112129;" d="M204.582,477.105l0.556-0.82c0.586,0.703,1.289,0.967,2.3,0.967c1.172,0,2.27-0.571,2.27-2.124
				v-1.011c-0.513,0.718-1.377,1.26-2.373,1.26c-1.845,0-3.149-1.377-3.149-3.662c0-2.27,1.289-3.677,3.149-3.677
				c0.952,0,1.802,0.469,2.373,1.245v-1.069h1.098v6.87c0,2.344-1.641,3.076-3.369,3.076
				C206.237,478.16,205.417,477.926,204.582,477.105z M209.709,473.253v-3.091c-0.381-0.615-1.23-1.143-2.109-1.143
				c-1.421,0-2.27,1.128-2.27,2.695c0,1.553,0.849,2.695,2.27,2.695C208.478,474.41,209.328,473.868,209.709,473.253z"/>
			<path style="fill:#112129;" d="M217.413,475.289v-4.629c0-1.245-0.63-1.641-1.582-1.641c-0.865,0-1.685,0.527-2.095,1.099v5.17
				h-1.099v-7.075h1.099v1.025c0.498-0.586,1.465-1.201,2.519-1.201c1.48,0,2.256,0.747,2.256,2.285v4.966H217.413z"/>
			<path style="fill:#112129;" d="M219.932,471.744c0-2.051,1.465-3.706,3.486-3.706c2.139,0,3.398,1.67,3.398,3.794v0.279h-5.727
				c0.088,1.333,1.025,2.446,2.549,2.446c0.806,0,1.626-0.322,2.183-0.894l0.527,0.718c-0.703,0.703-1.655,1.084-2.812,1.084
				C221.441,475.465,219.932,473.956,219.932,471.744z M223.404,468.947c-1.509,0-2.256,1.274-2.314,2.358h4.643
				C225.718,470.25,225.015,468.947,223.404,468.947z"/>
			<path style="fill:#112129;" d="M233.35,475.289v-1.055c-0.527,0.718-1.392,1.23-2.388,1.23c-1.846,0-3.149-1.406-3.149-3.706
				c0-2.256,1.289-3.721,3.149-3.721c0.952,0,1.817,0.469,2.388,1.245v-3.765h1.098v9.77H233.35z M233.35,473.37v-3.208
				c-0.396-0.615-1.245-1.143-2.124-1.143c-1.421,0-2.27,1.172-2.27,2.739c0,1.567,0.849,2.724,2.27,2.724
				C232.105,474.483,232.954,473.986,233.35,473.37z"/>
			<path style="fill:#112129;" d="M239.692,475.289v-9.77h1.098v3.765c0.572-0.776,1.421-1.245,2.388-1.245
				c1.845,0,3.149,1.465,3.149,3.721c0,2.299-1.304,3.706-3.149,3.706c-0.996,0-1.86-0.513-2.388-1.23v1.055H239.692z
				 M242.9,474.483c1.436,0,2.285-1.157,2.285-2.724c0-1.568-0.85-2.739-2.285-2.739c-0.864,0-1.728,0.527-2.109,1.143v3.208
				C241.171,473.986,242.036,474.483,242.9,474.483z"/>
			<path style="fill:#112129;" d="M247.528,477.061c0.161,0.073,0.425,0.117,0.601,0.117c0.483,0,0.805-0.161,1.055-0.747
				l0.469-1.069l-2.959-7.148h1.187l2.358,5.8l2.344-5.8h1.201l-3.545,8.51c-0.425,1.025-1.143,1.421-2.08,1.435
				c-0.234,0-0.601-0.044-0.806-0.103L247.528,477.061z"/>
		</g>
	</g>
</g>
</svg>
